<mxfile host="Electron" modified="2024-02-14T17:50:31.899Z" agent="Mozilla/5.0 (Windows NT 10.0; Win64; x64) AppleWebKit/537.36 (KHTML, like Gecko) draw.io/23.0.2 Chrome/120.0.6099.109 Electron/28.1.0 Safari/537.36" etag="X4emlMw4A0viFGKmWZXJ" version="23.0.2" type="device" pages="2">
  <diagram name="Page-1" id="y4mWA-HeYzaWvu7CdzqG">
    <mxGraphModel dx="1313" dy="776" grid="1" gridSize="5" guides="1" tooltips="1" connect="1" arrows="1" fold="1" page="1" pageScale="1" pageWidth="827" pageHeight="1169" math="0" shadow="0">
      <root>
        <mxCell id="0" />
        <mxCell id="1" parent="0" />
        <mxCell id="vAxRYSpbGjlzIPx5cKzN-1" value="&lt;font style=&quot;font-size: 15px;&quot;&gt;Product&lt;/font&gt;" style="shape=umlFrame;whiteSpace=wrap;html=1;pointerEvents=0;width=106;height=60;" parent="1" vertex="1">
          <mxGeometry x="14" y="220" width="816" height="915" as="geometry" />
        </mxCell>
        <mxCell id="dHtXZSxDoZGKjRGXaI3S-2" style="edgeStyle=orthogonalEdgeStyle;rounded=0;orthogonalLoop=1;jettySize=auto;html=1;exitX=0.5;exitY=1;exitDx=0;exitDy=0;entryX=0.5;entryY=0;entryDx=0;entryDy=0;entryPerimeter=0;" parent="1" edge="1">
          <mxGeometry relative="1" as="geometry">
            <mxPoint x="310.0000000000002" y="295" as="sourcePoint" />
            <mxPoint x="310.0000000000002" y="355" as="targetPoint" />
          </mxGeometry>
        </mxCell>
        <mxCell id="dHtXZSxDoZGKjRGXaI3S-3" style="edgeStyle=orthogonalEdgeStyle;rounded=0;orthogonalLoop=1;jettySize=auto;html=1;exitX=0.5;exitY=1;exitDx=0;exitDy=0;entryX=0.5;entryY=0;entryDx=0;entryDy=0;entryPerimeter=0;" parent="1" edge="1">
          <mxGeometry relative="1" as="geometry">
            <mxPoint x="317.5" y="400.00000000000006" as="sourcePoint" />
            <mxPoint x="312.5000000000002" y="455" as="targetPoint" />
            <Array as="points">
              <mxPoint x="313" y="400" />
              <mxPoint x="313" y="428" />
              <mxPoint x="313" y="428" />
            </Array>
          </mxGeometry>
        </mxCell>
        <mxCell id="dHtXZSxDoZGKjRGXaI3S-29" value="View Category&amp;nbsp;&lt;br&gt;of Products" style="text;html=1;align=center;verticalAlign=middle;resizable=0;points=[];autosize=1;strokeColor=none;fillColor=none;" parent="1" vertex="1">
          <mxGeometry x="305" y="308" width="100" height="40" as="geometry" />
        </mxCell>
        <mxCell id="dHtXZSxDoZGKjRGXaI3S-30" value="View&lt;br&gt;Product" style="text;html=1;align=center;verticalAlign=middle;resizable=0;points=[];autosize=1;strokeColor=none;fillColor=none;" parent="1" vertex="1">
          <mxGeometry x="315" y="415" width="60" height="40" as="geometry" />
        </mxCell>
        <mxCell id="ps9dGn57FndDVON0U3-Q-1" value="" style="ellipse;fillColor=strokeColor;html=1;" parent="1" vertex="1">
          <mxGeometry x="288" y="255" width="44" height="40" as="geometry" />
        </mxCell>
        <mxCell id="ps9dGn57FndDVON0U3-Q-2" value="" style="ellipse;html=1;shape=endState;fillColor=strokeColor;rotation=5;" parent="1" vertex="1">
          <mxGeometry x="356" y="1000" width="57.5" height="55" as="geometry" />
        </mxCell>
        <mxCell id="ps9dGn57FndDVON0U3-Q-3" value="View Category" style="rounded=1;whiteSpace=wrap;html=1;" parent="1" vertex="1">
          <mxGeometry x="255" y="355" width="120" height="45" as="geometry" />
        </mxCell>
        <mxCell id="ps9dGn57FndDVON0U3-Q-4" value="View Product" style="rounded=1;whiteSpace=wrap;html=1;" parent="1" vertex="1">
          <mxGeometry x="254.75" y="455" width="120" height="50" as="geometry" />
        </mxCell>
        <mxCell id="ps9dGn57FndDVON0U3-Q-26" style="edgeStyle=orthogonalEdgeStyle;rounded=0;orthogonalLoop=1;jettySize=auto;html=1;exitX=0.5;exitY=1;exitDx=0;exitDy=0;" parent="1" source="ps9dGn57FndDVON0U3-Q-6" target="ps9dGn57FndDVON0U3-Q-20" edge="1">
          <mxGeometry relative="1" as="geometry" />
        </mxCell>
        <mxCell id="ps9dGn57FndDVON0U3-Q-6" value="Check out&amp;nbsp;" style="rounded=1;whiteSpace=wrap;html=1;align=center;" parent="1" vertex="1">
          <mxGeometry x="570" y="670" width="120" height="45" as="geometry" />
        </mxCell>
        <mxCell id="ps9dGn57FndDVON0U3-Q-34" style="edgeStyle=orthogonalEdgeStyle;rounded=0;orthogonalLoop=1;jettySize=auto;html=1;exitX=1;exitY=0.5;exitDx=0;exitDy=0;entryX=0;entryY=0.5;entryDx=0;entryDy=0;" parent="1" source="ps9dGn57FndDVON0U3-Q-9" edge="1">
          <mxGeometry relative="1" as="geometry">
            <mxPoint x="570" y="687.5" as="targetPoint" />
          </mxGeometry>
        </mxCell>
        <mxCell id="ps9dGn57FndDVON0U3-Q-9" value="&#xa;&lt;span style=&quot;color: rgb(240, 240, 240); font-family: Helvetica; font-size: 12px; font-style: normal; font-variant-ligatures: normal; font-variant-caps: normal; font-weight: 400; letter-spacing: normal; orphans: 2; text-align: center; text-indent: 0px; text-transform: none; widows: 2; word-spacing: 0px; -webkit-text-stroke-width: 0px; background-color: rgb(27, 29, 30); text-decoration-thickness: initial; text-decoration-style: initial; text-decoration-color: initial; float: none; display: inline !important;&quot;&gt;Pending&lt;/span&gt;&#xa;&#xa;" style="rounded=1;whiteSpace=wrap;html=1;" parent="1" vertex="1">
          <mxGeometry x="285" y="665" width="120" height="45" as="geometry" />
        </mxCell>
        <mxCell id="ps9dGn57FndDVON0U3-Q-11" value="Cart O&lt;font style=&quot;font-size: 12px;&quot;&gt;ther &lt;/font&gt;Product" style="rounded=1;whiteSpace=wrap;html=1;" parent="1" vertex="1">
          <mxGeometry x="435" y="550" width="120" height="45" as="geometry" />
        </mxCell>
        <mxCell id="ps9dGn57FndDVON0U3-Q-12" value="Add to Cart" style="rounded=1;whiteSpace=wrap;html=1;" parent="1" vertex="1">
          <mxGeometry x="95" y="550" width="120" height="45" as="geometry" />
        </mxCell>
        <mxCell id="ps9dGn57FndDVON0U3-Q-13" value="" style="endArrow=classic;html=1;rounded=0;exitX=0;exitY=0.5;exitDx=0;exitDy=0;entryX=0.5;entryY=0;entryDx=0;entryDy=0;" parent="1" source="ps9dGn57FndDVON0U3-Q-4" target="ps9dGn57FndDVON0U3-Q-12" edge="1">
          <mxGeometry width="50" height="50" relative="1" as="geometry">
            <mxPoint x="280" y="690" as="sourcePoint" />
            <mxPoint x="330" y="640" as="targetPoint" />
          </mxGeometry>
        </mxCell>
        <mxCell id="ps9dGn57FndDVON0U3-Q-14" value="" style="endArrow=classic;html=1;rounded=0;exitX=1;exitY=0.5;exitDx=0;exitDy=0;entryX=0.5;entryY=0;entryDx=0;entryDy=0;" parent="1" source="ps9dGn57FndDVON0U3-Q-4" target="ps9dGn57FndDVON0U3-Q-11" edge="1">
          <mxGeometry width="50" height="50" relative="1" as="geometry">
            <mxPoint x="280" y="690" as="sourcePoint" />
            <mxPoint x="330" y="640" as="targetPoint" />
          </mxGeometry>
        </mxCell>
        <mxCell id="ps9dGn57FndDVON0U3-Q-15" value="" style="endArrow=classic;html=1;rounded=0;exitX=1;exitY=0.5;exitDx=0;exitDy=0;entryX=0.5;entryY=0;entryDx=0;entryDy=0;" parent="1" source="ps9dGn57FndDVON0U3-Q-11" edge="1">
          <mxGeometry width="50" height="50" relative="1" as="geometry">
            <mxPoint x="555" y="570" as="sourcePoint" />
            <mxPoint x="630" y="665" as="targetPoint" />
          </mxGeometry>
        </mxCell>
        <mxCell id="ps9dGn57FndDVON0U3-Q-17" value="" style="endArrow=classic;html=1;rounded=0;exitX=0;exitY=0.5;exitDx=0;exitDy=0;entryX=0.5;entryY=0;entryDx=0;entryDy=0;" parent="1" source="ps9dGn57FndDVON0U3-Q-11" target="ps9dGn57FndDVON0U3-Q-9" edge="1">
          <mxGeometry width="50" height="50" relative="1" as="geometry">
            <mxPoint x="430" y="575" as="sourcePoint" />
            <mxPoint x="330" y="645" as="targetPoint" />
          </mxGeometry>
        </mxCell>
        <mxCell id="ps9dGn57FndDVON0U3-Q-21" style="edgeStyle=orthogonalEdgeStyle;rounded=0;orthogonalLoop=1;jettySize=auto;html=1;entryX=1;entryY=0.5;entryDx=0;entryDy=0;" parent="1" target="ps9dGn57FndDVON0U3-Q-2" edge="1">
          <mxGeometry relative="1" as="geometry">
            <Array as="points">
              <mxPoint x="660" y="807" />
              <mxPoint x="660" y="1030" />
            </Array>
            <mxPoint x="665" y="870" as="sourcePoint" />
          </mxGeometry>
        </mxCell>
        <mxCell id="ps9dGn57FndDVON0U3-Q-20" value="&amp;nbsp;Contact Form" style="rounded=1;whiteSpace=wrap;html=1;" parent="1" vertex="1">
          <mxGeometry x="570" y="785" width="120" height="45" as="geometry" />
        </mxCell>
        <mxCell id="ps9dGn57FndDVON0U3-Q-25" style="edgeStyle=orthogonalEdgeStyle;rounded=0;orthogonalLoop=1;jettySize=auto;html=1;exitX=0.285;exitY=1.021;exitDx=0;exitDy=0;entryX=0;entryY=0.5;entryDx=0;entryDy=0;exitPerimeter=0;" parent="1" target="ps9dGn57FndDVON0U3-Q-2" edge="1">
          <mxGeometry relative="1" as="geometry">
            <Array as="points">
              <mxPoint x="129" y="1025" />
            </Array>
            <mxPoint x="129.2" y="594.9449999999999" as="sourcePoint" />
            <mxPoint x="330.109402429865" y="1018.994272396005" as="targetPoint" />
          </mxGeometry>
        </mxCell>
        <mxCell id="ps9dGn57FndDVON0U3-Q-27" value="Add Product to Cart" style="text;html=1;align=center;verticalAlign=middle;resizable=0;points=[];autosize=1;strokeColor=none;fillColor=none;rotation=-40;" parent="1" vertex="1">
          <mxGeometry x="125" y="485" width="125" height="30" as="geometry" />
        </mxCell>
        <mxCell id="ps9dGn57FndDVON0U3-Q-28" value="User Cart Other&lt;br&gt;Product" style="text;html=1;align=center;verticalAlign=middle;resizable=0;points=[];autosize=1;strokeColor=none;fillColor=none;rotation=35;" parent="1" vertex="1">
          <mxGeometry x="387" y="465" width="105" height="45" as="geometry" />
        </mxCell>
        <mxCell id="ps9dGn57FndDVON0U3-Q-30" value="Other Successful" style="text;html=1;align=center;verticalAlign=middle;resizable=0;points=[];autosize=1;strokeColor=none;fillColor=none;rotation=55;" parent="1" vertex="1">
          <mxGeometry x="735" y="720" width="110" height="30" as="geometry" />
        </mxCell>
        <mxCell id="ps9dGn57FndDVON0U3-Q-31" value="User Succesfully buy Product" style="text;html=1;align=center;verticalAlign=middle;resizable=0;points=[];autosize=1;strokeColor=none;fillColor=none;rotation=90;" parent="1" vertex="1">
          <mxGeometry x="660" y="915" width="180" height="30" as="geometry" />
        </mxCell>
        <mxCell id="ps9dGn57FndDVON0U3-Q-36" value="Add Contact &lt;br&gt;Details" style="text;html=1;align=center;verticalAlign=middle;resizable=0;points=[];autosize=1;strokeColor=none;fillColor=none;rotation=90;" parent="1" vertex="1">
          <mxGeometry x="655" y="730" width="85" height="45" as="geometry" />
        </mxCell>
        <mxCell id="BoSe89orxpXJtx95gR9r-1" value="Start" style="text;html=1;align=center;verticalAlign=middle;resizable=0;points=[];autosize=1;strokeColor=none;fillColor=none;fontStyle=1;fontSize=15;" parent="1" vertex="1">
          <mxGeometry x="332" y="257.5" width="55" height="35" as="geometry" />
        </mxCell>
        <mxCell id="BoSe89orxpXJtx95gR9r-2" value="Stop" style="text;html=1;align=center;verticalAlign=middle;resizable=0;points=[];autosize=1;strokeColor=none;fillColor=none;fontSize=15;fontStyle=1" parent="1" vertex="1">
          <mxGeometry x="360" y="1055" width="55" height="35" as="geometry" />
        </mxCell>
        <mxCell id="3j4sFQBVEtEeZ6LpbSw5-5" value="" style="endArrow=none;html=1;rounded=0;" parent="1" edge="1">
          <mxGeometry width="50" height="50" relative="1" as="geometry">
            <mxPoint x="485" y="450" as="sourcePoint" />
            <mxPoint x="535" y="400" as="targetPoint" />
          </mxGeometry>
        </mxCell>
        <mxCell id="3j4sFQBVEtEeZ6LpbSw5-7" value="User Select items Qty. &amp;amp; &lt;br&gt;Further process of order" style="text;html=1;align=center;verticalAlign=middle;resizable=0;points=[];autosize=1;strokeColor=none;fillColor=none;rotation=45;" parent="1" vertex="1">
          <mxGeometry x="555" y="570" width="150" height="45" as="geometry" />
        </mxCell>
        <mxCell id="r42ExPSIQEtIkFAvvNal-1" value="&lt;span style=&quot;color: rgb(240, 240, 240); font-family: Helvetica; font-size: 12px; font-style: normal; font-variant-ligatures: normal; font-variant-caps: normal; font-weight: 400; letter-spacing: normal; orphans: 2; text-align: center; text-indent: 0px; text-transform: none; widows: 2; word-spacing: 0px; -webkit-text-stroke-width: 0px; background-color: rgb(27, 29, 30); text-decoration-thickness: initial; text-decoration-style: initial; text-decoration-color: initial; float: none; display: inline !important;&quot;&gt;item are not avaliable&lt;/span&gt;" style="text;whiteSpace=wrap;html=1;rotation=-46;" parent="1" vertex="1">
          <mxGeometry x="305" y="590" width="140" height="35" as="geometry" />
        </mxCell>
      </root>
    </mxGraphModel>
  </diagram>
  <diagram id="edGppJr-fwE9R2HBfSuR" name="Page-2">
    <mxGraphModel dx="1050" dy="621" grid="1" gridSize="10" guides="1" tooltips="1" connect="1" arrows="1" fold="1" page="1" pageScale="1" pageWidth="850" pageHeight="1100" math="0" shadow="0">
      <root>
        <mxCell id="0" />
        <mxCell id="1" parent="0" />
      </root>
    </mxGraphModel>
  </diagram>
</mxfile>
